# xmcd
#
# Track frame offsets: 
#        150
#        28272
#        48752
#        73174
#        89870
#        113145
#        135834
#        172440
#        199233
#        225471
#        251611
#        277454
#
# Disc length: 3876 seconds
#
# Revision: 1
# Processed by: cddbd v1.5.2PL0 Copyright (c) Steve Scherf et al.
# Submitted via: ExactAudioCopy v1.0b6
#
DISCID=ba0f220c
DTITLE=Tunji Oyelana - A Nigerian retrospective
DYEAR=1980
DGENRE=Afrique
TTITLE0=Ojo 1974
TTITLE1=Lisabi egba 1976
TTITLE2=Ipasan 1974
TTITLE3=Osekere 1974
TTITLE4=Fiya jemi 1976
TTITLE5=Ifa 1976
TTITLE6=Ogun adubi 1974
TTITLE7=Agba lo de [LP version] 1974
TTITLE8=Iwo ko lo dami 1976
TTITLE9=Omoba d'eru ri 1974
TTITLE10=Jewele jewele 1974
TTITLE11=To whom it may concern
EXTD=
EXTT0=
EXTT1=
EXTT2=
EXTT3=
EXTT4=
EXTT5=
EXTT6=
EXTT7=
EXTT8=
EXTT9=
EXTT10=
EXTT11=
PLAYORDER=
